<svg width="184" height="31" viewBox="0 0 184 31" fill="none" xmlns="http://www.w3.org/2000/svg">
<g clip-path="url(#clip0_3000_3317)">
<path d="M70.6981 30.9949H75.7846V17.0335C75.7846 13.1237 78.8315 9.91488 82.6755 9.65423V4.5601C76.025 4.82582 70.6981 10.3198 70.6981 17.0335V30.9949Z" fill="white"/>
<path d="M50 0V16.7324C50 24.4736 56.1949 30.795 63.888 30.9949V25.6528C59.1406 25.4529 55.3396 21.5279 55.3396 16.7324V9.90482H61.8762V4.56522H55.3396V0H50Z" fill="white"/>
<path d="M100.964 4.54971C93.7063 4.54971 87.8024 10.4536 87.8024 17.7114C87.8024 24.9692 93.7063 30.9997 100.964 30.9997C103.568 30.9997 106.089 30.1114 108.252 28.6664L109.039 28.1401V30.9946H114.126V17.5318L114.116 17.3318C114.017 13.9029 112.605 10.689 110.138 8.2849C107.665 5.87575 104.408 4.54971 100.964 4.54971ZM100.964 25.7866C96.5127 25.7866 92.8889 22.1653 92.8889 17.7114C92.8889 13.2575 96.5102 9.63624 100.964 9.63624C105.418 9.63624 109.039 13.2575 109.039 17.7114C109.039 22.1653 105.418 25.7866 100.964 25.7866Z" fill="white"/>
<path d="M120.822 30.9951H125.908V9.10022H120.822V30.9976V30.9951Z" fill="white"/>
<path d="M151.48 30.9946H156.567V16.4765C156.567 9.89437 151.184 4.54213 144.569 4.54213C137.954 4.54213 132.571 9.8969 132.571 16.4765V30.9971H137.658V16.4765C137.658 12.6831 140.758 9.59829 144.569 9.59829C148.38 9.59829 151.48 12.6831 151.48 16.4765V30.9946Z" fill="white"/>
<path d="M163.496 9.66967H175.789L163.908 26.9816C163.364 27.7737 163.311 28.7885 163.764 29.6337C164.209 30.4612 165.075 30.9977 166.016 30.9977H166.054H183.06V25.8403L170.855 25.815L182.741 8.55873C183.277 7.77677 183.338 6.76706 182.895 5.9269C182.452 5.08673 181.587 4.5629 180.638 4.5629H163.498V9.66714L163.496 9.66967Z" fill="white"/>
<path d="M123.312 0C121.563 0 120.138 1.4222 120.138 3.17339C120.138 4.92457 121.561 6.34424 123.312 6.34424C125.063 6.34424 126.483 4.92204 126.483 3.17339C126.483 1.42473 125.061 0 123.312 0Z" fill="white"/>
<path d="M16.3427 14.1688C16.3427 14.1688 0.248 30.4204 0 30.7899C5.03592 30.6305 10.0465 30.0231 13.9209 26.4524C16.0542 24.4861 18.0711 22.3781 20.1411 20.3435C20.5688 19.9235 20.994 19.5034 21.4216 19.0833L16.3427 14.1714V14.1688Z" fill="#F1602F"/>
<path d="M18.5318 30.8858C18.795 30.6049 21.3433 30.901 21.8393 30.8706C22.9401 30.8023 24.0384 30.6581 25.1114 30.4075C31.5923 28.8968 35.8235 23.375 40.2546 18.8553C36.4004 15.0189 32.5438 11.1825 28.6897 7.34607C26.3767 5.04321 23.9043 2.76566 20.9182 1.37383C17.9295 -0.0205401 14.9611 -0.000295058 11.7447 0.18697L30.4763 18.7743C30.4763 18.7743 18.5369 30.8808 18.5343 30.8833L18.5318 30.8858Z" fill="#F68B1F"/>
</g>
<defs>
<clipPath id="clip0_3000_3317">
<rect width="183.232" height="31" fill="white"/>
</clipPath>
</defs>
</svg>
